<?xml version="1.0" encoding="UTF-8" standalone="no"?>
<!-- Created with Inkscape (http://www.inkscape.org/) -->

<svg
   version="1.1"
   id="svg1"
   width="686.72864"
   height="728.27795"
   viewBox="0 0 686.72862 728.27795"
   xmlns="http://www.w3.org/2000/svg"
   xmlns:svg="http://www.w3.org/2000/svg">
  <defs
     id="defs1" />
  <g
     id="g3"
     transform="translate(-415.36964,-189.59473)">
    <path
       style="fill:#5ea500;fill-opacity:1"
       d="m 425.96207,195.54933 0.57984,-0.51026 a 21.839674,21.839674 159.66165 0 1 14.68369,-5.44284 l 407.94656,4.77829 c 33.83148,0.39627 88.46538,5.3626 120.46186,16.28422 93.81118,32.02133 123.86218,85.29604 131.95348,145.89066 3.8942,29.16365 -15.0159,69.47061 -38.3707,87.3972 -92.40041,70.92453 -183.71395,99.93041 -245.86328,95.98209 -15.76189,-1.00135 -17.46841,-11.58442 -4.19943,-20.20381 l 83.79807,-54.43431 A 42.358041,42.358041 105.2842 0 0 911.8104,410.91912 L 897.66803,382.45978 A 92.769234,92.769234 31.674986 0 0 814.2255,330.97494 l -221.73146,0.87364 -0.18114,151.04509 a 17.028037,17.028037 143.92165 0 1 -22.22623,16.19478 L 436.57081,456.28651 a 30.253338,30.253338 53.862101 0 1 -21.0178,-28.78259 l -0.18336,-208.49598 a 31.211856,31.211856 114.30091 0 1 10.59242,-23.45861 z"
       id="path2" />
    <path
       style="fill:#080836;fill-opacity:0.990415"
       d="m 451.52413,500.94079 85.87792,28.51371 a 909.37933,909.37933 14.088408 0 0 131.62493,33.03358 l 89.87139,15.53852 c 31.71704,5.48378 83.41738,7.19156 115.06095,1.33145 84.00057,-15.55618 156.08638,-43.56876 209.35788,-91.25071 11.8793,-10.63287 20.1083,-7.40517 18.4979,8.46092 -6.8153,67.14416 -29.7909,129.92272 -87.7121,168.32662 -13.4352,8.908 -36.53192,21.31391 -51.0325,28.37367 -70.58818,34.36657 -142.86653,31.54934 -215.23755,26.69351 -6.42687,-0.43122 -13.40478,4.12021 -15.58659,10.1808 a 151.82268,151.82268 97.787283 0 0 -6.29292,46.01541 l -1.72786,44.92429 c -0.57983,15.07555 -7.06872,38.01788 -16.31399,49.92443 -3.14849,4.05479 -7.60848,9.28993 -14.46551,16.68241 -4.01111,4.32433 -11.35783,10.35564 -16.52886,13.19252 -12.90218,7.07828 -25.33512,11.69304 -37.50463,14.92481 -19.77239,5.25082 -51.53551,-0.18732 -70.16627,-8.67467 l -114.75614,-52.2778 a 55.068412,55.068412 56.891977 0 1 -32.23479,-49.43294 l -3.46663,-280.54799 a 24.89316,24.89316 143.82978 0 1 32.73537,-23.93254 z"
       id="path3" />
  </g>
</svg>
